<?xml version="1.0" standalone="no"?>
<!DOCTYPE svg PUBLIC "-//W3C//DTD SVG 20010904//EN"
 "http://www.w3.org/TR/2001/REC-SVG-20010904/DTD/svg10.dtd">
<svg version="1.0" xmlns="http://www.w3.org/2000/svg"
 width="225.000000pt" height="225.000000pt" viewBox="0 0 225.000000 225.000000"
 preserveAspectRatio="xMidYMid meet">

<g transform="translate(0.000000,225.000000) scale(0.100000,-0.100000)"
fill="#000000" stroke="none">
<path d="M965 2215 c-282 -62 -497 -268 -577 -552 -29 -106 -29 -275 0 -384
37 -138 123 -280 224 -369 l39 -35 -93 -61 c-229 -151 -394 -392 -449 -659
-30 -145 -37 -135 86 -135 l105 0 0 33 c0 109 82 318 171 438 82 111 215 218
334 269 46 20 46 20 85 0 131 -67 340 -66 471 0 l40 21 55 -25 c131 -60 266
-176 348 -300 77 -116 146 -306 146 -403 l0 -33 106 0 106 0 -7 55 c-10 81
-49 221 -84 298 -87 194 -236 355 -444 481 l-28 17 69 73 c83 88 141 182 178
291 39 114 46 295 15 416 -86 346 -388 581 -741 578 -52 0 -122 -7 -155 -14z
m317 -211 c230 -67 397 -291 398 -531 0 -246 -167 -466 -409 -537 -68 -20
-217 -21 -290 -1 -87 23 -161 66 -237 138 -338 319 -155 880 311 951 49 7 170
-4 227 -20z"/>
</g>
</svg>
